<svg width="24" height="24" viewBox="0 0 24 24" fill="none" xmlns="http://www.w3.org/2000/svg">
<path d="M8.51996 13.8458C7.47996 13.8458 6.63196 12.9008 6.63196 11.7448C6.63196 10.5888 7.45896 9.64281 8.52096 9.64281C9.57096 9.64281 10.431 10.5878 10.41 11.7448C10.41 12.9008 9.57096 13.8458 8.51996 13.8458ZM15.494 13.8448C14.454 13.8448 13.604 12.8998 13.604 11.7438C13.604 10.5878 14.433 9.64181 15.494 9.64181C16.544 9.64181 17.404 10.5868 17.384 11.7438C17.384 12.8998 16.555 13.8448 15.494 13.8448ZM10.125 4.32081L9.81696 3.75781L9.18296 3.86381C7.74627 4.10393 6.34797 4.53439 5.02496 5.14381L4.79696 5.24881L4.65496 5.45881C2.04196 9.31181 1.32496 13.1068 1.67996 16.8338L1.71896 17.2408L2.04896 17.4808C3.58606 18.6089 5.30297 19.4687 7.12696 20.0238L7.91696 20.2658L9.02996 17.5498C10.94 18.0218 13.06 18.0218 14.969 17.5498L16.076 20.2668L16.866 20.0248C18.6915 19.4711 20.4094 18.6104 21.946 17.4798L22.273 17.2418L22.313 16.8398C22.749 12.5198 21.616 8.75681 19.355 5.45581L19.213 5.24781L18.985 5.14381C17.6624 4.53692 16.2657 4.10656 14.831 3.86381L14.213 3.76081L13.899 4.30281C13.811 4.45281 13.722 4.62281 13.636 4.79581C12.5511 4.68461 11.4578 4.68461 10.373 4.79581C10.288 4.62581 10.203 4.46181 10.125 4.32081ZM6.71496 16.6098C6.91196 16.7238 7.11996 16.8358 7.32496 16.9378L6.87596 18.0338C5.66146 17.5913 4.50925 16.9937 3.44796 16.2558C3.22296 13.1178 3.86096 9.95081 6.01196 6.68581C6.91984 6.28634 7.86606 5.98043 8.83596 5.77281C8.89596 5.89781 8.95196 6.02081 8.99796 6.12881L9.27096 6.77181L9.96296 6.67081C11.319 6.47203 12.6969 6.47203 14.053 6.67081L14.743 6.77081L15.015 6.12881C15.062 6.01681 15.117 5.89481 15.175 5.77281C16.152 5.98281 17.098 6.29281 18.003 6.68781C19.878 9.50781 20.824 12.6538 20.549 16.2548C19.4871 16.9932 18.3342 17.5912 17.119 18.0338L16.674 16.9388C16.88 16.8368 17.088 16.7248 17.287 16.6098C17.777 16.3278 18.304 15.9758 18.64 15.6398L17.36 14.3598C17.197 14.5238 16.837 14.7798 16.383 15.0418C15.939 15.2978 15.498 15.5048 15.216 15.5978C13.213 16.2608 10.788 16.2608 8.78396 15.5978C8.50296 15.5048 8.06196 15.2978 7.61796 15.0418C7.16396 14.7808 6.80396 14.5238 6.63996 14.3598L5.35996 15.6398C5.69696 15.9758 6.22496 16.3278 6.71496 16.6098Z" fill="#73B6D2"/>
</svg>
