<svg width="15" height="15" viewBox="0 0 15 15" fill="none" xmlns="http://www.w3.org/2000/svg">
<path d="M6.18904 0.267912C6.43697 0.0928146 6.73321 -0.000841856 7.03672 -8.54806e-05C7.34023 0.000670895 7.63599 0.0958033 7.88305 0.272135C8.13349 0.455071 8.32343 0.708368 8.42755 1.00107L9.05647 2.93316C9.21786 3.41744 9.48961 3.85756 9.85027 4.21876C10.2109 4.57996 10.6506 4.85235 11.1346 5.01442L13.0917 5.64767C13.3811 5.75244 13.6302 5.94539 13.8042 6.19931C13.9781 6.45323 14.0679 6.75532 14.0611 7.06303C14.0543 7.37074 13.9511 7.66855 13.766 7.91449C13.581 8.16044 13.3235 8.34212 13.0298 8.43393L11.0952 9.06436C10.6107 9.22559 10.1704 9.49731 9.809 9.85803C9.4476 10.2188 9.17504 10.6586 9.01285 11.1428L8.3769 13.096C8.27449 13.3838 8.08496 13.6324 7.83467 13.8075C7.58438 13.9825 7.28577 14.0751 6.98039 14.0725C6.67502 14.0698 6.37805 13.9721 6.13081 13.7928C5.88357 13.6135 5.69835 13.3616 5.60092 13.0721L4.95793 11.102C4.79652 10.6308 4.53032 10.2023 4.17938 9.84888C3.82844 9.49544 3.4019 9.22624 2.93188 9.06155L0.976169 8.43253C0.688576 8.32989 0.440069 8.14024 0.265148 7.88992C0.090228 7.63959 -0.0024266 7.341 4.83197e-05 7.03561C0.00252324 6.73022 0.100005 6.43317 0.278959 6.18571C0.457914 5.93826 0.709462 5.75266 0.998681 5.6547L2.93188 5.02849C3.41879 4.86689 3.86099 4.59324 4.2229 4.22956C4.58481 3.86588 4.85633 3.42232 5.01562 2.93457L5.65157 0.977144C5.75288 0.690074 5.94141 0.442406 6.18904 0.267912Z" fill="#358BB9"/>
</svg>
